<?xml version="1.0" encoding="UTF-8"?>
<svg id="Layer_1" xmlns="http://www.w3.org/2000/svg" version="1.1" viewBox="0 0 925.96 799.28">
  <!-- Generator: Adobe Illustrator 29.8.2, SVG Export Plug-In . SVG Version: 2.1.1 Build 3)  -->
  <defs>
    <style>
      .st0, .st1 {
        isolation: isolate;
      }

      .st1 {
        font-family: Satoshi-Regular, Satoshi;
        font-size: 75px;
      }
    </style>
  </defs>
  <g>
    <path d="M535.07,348.99v170.5h-151.5v-69.56c0-15.69,12.72-28.42,28.42-28.42h74.94v25.12h-69.56v47.73h86.97v-150.61c0-21.45-17.39-38.84-38.84-38.84h-48.13v105.83h0c-18.67,0-33.8-15.13-33.8-33.8v-171.35c0-37.56,30.45-68.01,68.01-68.01h75.74v59.86c0,9.78-7.93,17.71-17.71,17.71h0v-67.82h-52.76c-21.8,0-39.48,17.68-39.48,39.48v100.42h55.94c34.11,0,61.76,27.65,61.76,61.76h0Z"/>
    <path d="M538.17,256.2c-9.5-1.48-17.47-9.44-18.53-19.49-.93,10.06-8.77,18.55-18.22,19.49,1.24.14,3.43.88,4.05,1.09,7.68,2.62,13.18,9.83,14.17,18.4.33-2.6,1.07-5.07,2.17-7.33,2.57-5.32,7.17-9.2,12.51-11.01l3.85-1.14h0s0,0,0,0Z"/>
  </g>
  <g class="st0">
    <g class="st0">
      <text class="st1" transform="translate(58.95 651.57)"><tspan x="0" y="0">FG AE</tspan></text>
    </g>
    <g class="st0">
      <text class="st1" transform="translate(268.2 651.57)"><tspan x="0" y="0">S</tspan></text>
    </g>
    <g class="st0">
      <text class="st1" transform="translate(309.67 651.57)"><tspan x="0" y="0">THETIC CENTRE</tspan></text>
    </g>
  </g>
</svg>