<?xml version="1.0" encoding="UTF-8"?>
<svg version="1.1" xmlns="http://www.w3.org/2000/svg" width="358" height="854" viewBox="-60 -120 478 1094">
<path d="M0 0 C118.14 0 236.28 0 358 0 C358 281.82 358 563.64 358 854 C239.86 854 121.72 854 0 854 C0 572.18 0 290.36 0 0 Z " fill="#010101" transform="translate(0,0)"/>
<path d="M0 0 C5.00871013 0.01900686 10.01742819 0.02053584 15.02616882 0.02407622 C24.47085909 0.03332727 33.91544272 0.05784499 43.36008644 0.08812469 C54.12946772 0.12188745 64.89885463 0.13820919 75.66827583 0.153211 C97.78470288 0.1844024 119.90103455 0.23702478 142.01737976 0.30418181 C142.08755652 18.01130289 142.14041032 35.71838771 142.17281628 53.42561793 C142.18826492 61.6479633 142.209316 69.8702221 142.24369812 78.09251189 C142.27366196 85.26163204 142.29296931 92.43068947 142.29964525 99.5998705 C142.30354571 103.39358264 142.31267023 107.1871154 142.33456993 110.98076987 C142.35504569 114.55698454 142.36119138 118.13294721 142.3567028 121.70921493 C142.35791198 123.63624335 142.3739958 125.56324479 142.39064026 127.49020171 C142.36639727 134.33933403 141.71320489 139.98712578 139.01737976 146.30418181 C138.65257507 147.22328338 138.28777039 148.14238494 137.91191101 149.08933806 C132.22809714 161.05202213 123.10085542 167.01060605 111.13456726 171.82371306 C109.01737976 172.30418181 109.01737976 172.30418181 102.01737976 172.30418181 C102.01737976 122.47418181 102.01737976 72.64418181 102.01737976 21.30418181 C81.28925476 21.36605681 60.56112976 21.42793181 39.20487976 21.49168181 C32.69535583 21.49836883 26.18583191 21.50505584 19.47904968 21.51194549 C13.56897341 21.54187759 13.56897341 21.54187759 7.65893555 21.57830596 C5.05602786 21.59126149 2.4542637 21.59656122 -0.14855957 21.59014678 C-14.498923 21.56106041 -27.83273827 21.81934303 -41.58300781 26.23528838 C-44.98262024 27.30418181 -44.98262024 27.30418181 -47.98262024 27.30418181 C-47.98262024 27.96418181 -47.98262024 28.62418181 -47.98262024 29.30418181 C-49.30262024 29.30418181 -50.62262024 29.30418181 -51.98262024 29.30418181 C-51.98262024 29.96418181 -51.98262024 30.62418181 -51.98262024 31.30418181 C-52.91074524 31.63418181 -53.83887024 31.96418181 -54.79512024 32.30418181 C-72.97971924 40.14995638 -87.06401495 57.22914656 -94.73652649 75.07371306 C-99.300884 86.9067026 -101.12671022 97.5518231 -101.14083862 110.15612578 C-101.1457766 111.1071162 -101.15071458 112.05810662 -101.15580219 113.03791493 C-101.17107484 116.20227113 -101.17950987 119.36660721 -101.1879425 122.53098845 C-101.19752909 124.80815088 -101.20753962 127.08531154 -101.21794128 129.36247039 C-101.24491188 135.5290849 -101.26596381 141.69570701 -101.28594327 147.8623476 C-101.30785135 154.31257239 -101.3352164 160.76277398 -101.36199951 167.21298003 C-101.40619917 178.03430501 -101.44704529 188.85563712 -101.48530579 199.67698455 C-101.5247113 210.81957213 -101.56614952 221.96214911 -101.61030579 233.10471892 C-101.61303006 233.79235039 -101.61575433 234.47998186 -101.61856116 235.18845064 C-101.63224147 238.63833552 -101.64596158 242.08822025 -101.65970147 245.53810489 C-101.77351043 274.12677495 -101.88028217 302.71546852 -101.98262024 331.30418181 C-100.94206875 331.30003375 -100.94206875 331.30003375 -99.88049603 331.29580188 C-82.91640171 331.22923486 -65.95234934 331.17975301 -48.98815441 331.1487453 C-40.78403183 331.13334748 -32.579997 331.11239548 -24.37593079 331.07786345 C-17.21623634 331.04774198 -10.05660552 331.0285555 -2.89684945 331.02191633 C0.8860044 331.01804212 4.6686764 331.00908978 8.45147133 330.98699164 C53.17706688 330.73627018 88.93089336 341.59184961 121.64237976 373.55418181 C127.67058267 379.59824146 132.48988729 386.05651796 137.01737976 393.30418181 C137.40941589 393.92115935 137.80145203 394.53813689 138.20536804 395.17381072 C144.35402602 404.88932902 148.89685698 414.1873194 152.01737976 425.30418181 C152.66151473 426.92985578 153.30755922 428.55477367 153.95487976 430.17918181 C158.67767866 443.15754966 159.4614986 456.56275647 159.37814331 470.23034453 C159.3794555 471.86193974 159.38208946 473.49353432 159.38591081 475.12512559 C159.39254674 479.55621688 159.38071956 483.98708627 159.36557662 488.41814935 C159.35251968 493.21612241 159.35701249 498.01408476 159.35928345 502.81207061 C159.36085013 511.10754164 159.35150458 519.40294142 159.33456993 527.69839454 C159.31010189 539.69194978 159.30236671 551.68547086 159.29860596 563.67904835 C159.29205367 583.14175881 159.27212581 602.60443137 159.24369812 622.06712127 C159.21612582 640.96392928 159.19494222 659.86072691 159.18217468 678.75755095 C159.18137069 679.93585618 159.1805667 681.11416141 159.17973834 682.32817286 C159.17349942 691.54443937 159.16762887 700.76070611 159.16187465 709.97697294 C159.13361639 755.08607736 159.07325139 800.19508681 159.01737976 845.30418181 C48.13737976 845.30418181 -62.74262024 845.30418181 -176.98262024 845.30418181 C-176.98262024 675.01936287 -176.98262024 675.01936287 -170.42012024 662.24168181 C-170.07424866 661.5661325 -169.72837708 660.89058318 -169.37202454 660.19456267 C-161.49257255 645.48287231 -148.4458014 635.81922122 -132.95527649 630.17918181 C-127.46360816 628.56271177 -122.29175244 628.1798529 -116.57945251 628.1839273 C-115.85562075 628.18307287 -115.13178899 628.18221845 -114.38602293 628.18133813 C-111.97239568 628.1796974 -109.55883869 628.18518157 -107.1452179 628.19065642 C-105.4103648 628.19093862 -103.67551159 628.19077992 -101.94065857 628.19021392 C-97.238674 628.18992723 -92.53671498 628.19580323 -87.83473635 628.20278788 C-82.91799836 628.20904278 -78.00125978 628.20962691 -73.08451843 628.21081328 C-63.7773964 628.21392029 -54.47028612 628.2221252 -45.16316926 628.23216277 C-34.56589357 628.24334346 -23.9686173 628.24883929 -13.37133718 628.25385821 C8.42490982 628.26430833 30.2211407 628.28264599 52.01737976 628.30418181 C52.01737976 646.45418181 52.01737976 664.60418181 52.01737976 683.30418181 C1.19737976 683.30418181 -49.62262024 683.30418181 -101.98262024 683.30418181 C-101.98262024 718.28418181 -101.98262024 753.26418181 -101.98262024 789.30418181 C-38.29262024 789.30418181 25.39737976 789.30418181 91.01737976 789.30418181 C90.89782985 728.10786834 90.89782985 728.10786834 90.75956726 666.91160369 C90.73955848 658.66738205 90.71967391 650.42316012 90.69999695 642.17893767 C90.69752551 641.14562385 90.69505407 640.11231002 90.69250774 639.04768366 C90.65276204 622.35415797 90.62003153 605.66062549 90.58987994 588.96708003 C90.5587927 571.84169752 90.52019502 554.71634389 90.47458971 537.59099382 C90.4466747 527.01927684 90.42465473 516.44758103 90.41011725 505.87583705 C90.39959494 498.63157102 90.38179357 491.38734594 90.35821272 484.14311073 C90.34481388 479.96030429 90.33467757 475.77755538 90.33316612 471.59472632 C90.33171234 467.76711291 90.32114119 463.93963815 90.30324535 460.1120673 C90.29838597 458.72572347 90.29690421 457.33936293 90.29910095 455.95301232 C90.30159386 454.07113599 90.29068689 452.18925609 90.27909279 450.30741382 C90.27681447 449.26128431 90.27453614 448.2151548 90.27218878 447.13732439 C90.00393831 444.15473045 89.23446867 442.02338634 88.01737976 439.30418181 C87.39451855 437.10104828 86.79184096 434.89215041 86.20487976 432.67918181 C80.4265063 412.30616656 68.63666155 394.9392869 50.10722351 384.19675994 C42.40619021 379.96948041 34.60677928 376.52549553 26.17753601 373.99558806 C24.01737976 373.30418181 24.01737976 373.30418181 23.01737976 372.30418181 C-18.39974289 367.7022793 -60.31216895 370.66340984 -101.98262024 370.30418181 C-101.98262024 447.52418181 -101.98262024 524.74418181 -101.98262024 604.30418181 C-123.62220403 604.30418181 -140.32046341 596.89826864 -155.67012024 581.92918181 C-165.98262024 571.59912563 -165.98262024 571.59912563 -165.98262024 566.30418181 C-166.64262024 566.30418181 -167.30262024 566.30418181 -167.98262024 566.30418181 C-175.18002862 552.11584809 -177.58714964 539.06354345 -177.49055481 523.40711761 C-177.49517493 521.75381379 -177.50153525 520.10051409 -177.50946379 518.44722283 C-177.52602949 513.9458317 -177.51796925 509.44478352 -177.50551891 504.9433918 C-177.49641728 500.07194349 -177.51046384 495.20055155 -177.5214386 490.32911468 C-177.53917811 480.79962349 -177.53540307 471.2702587 -177.52378803 461.74076267 C-177.51473066 453.98627111 -177.51353968 446.23181481 -177.5178833 438.47731948 C-177.51849623 437.37087468 -177.51910917 436.26442988 -177.51974067 435.12445646 C-177.52101968 432.87614874 -177.52231653 430.62784103 -177.52363104 428.37953334 C-177.53502485 407.31813364 -177.52194472 386.25680368 -177.50042957 365.19541542 C-177.48258451 347.16994967 -177.48564365 329.14458708 -177.50410461 311.11912322 C-177.52557543 290.14526061 -177.5339003 269.1714592 -177.52165556 248.19758713 C-177.5203815 245.95479203 -177.51912401 243.71199692 -177.5178833 241.4692018 C-177.51695765 239.81435724 -177.51695765 239.81435724 -177.51601329 238.12608147 C-177.51257712 230.396611 -177.51835166 222.6671797 -177.52780151 214.93771529 C-177.53909322 205.4946817 -177.53583336 196.05178086 -177.51467854 186.60876222 C-177.50425983 181.80155415 -177.49988638 176.99456631 -177.51327515 172.18736053 C-177.63355567 124.97273745 -169.90625025 82.5761278 -135.98262024 47.30418181 C-135.51517395 46.80563689 -135.04772766 46.30709197 -134.56611633 45.79343963 C-126.44443371 37.14887935 -117.77719524 29.98015942 -107.98262024 23.30418181 C-107.12926086 22.71250213 -106.27590149 22.12082244 -105.39668274 21.51121306 C-101.9129867 19.19954116 -100.26625746 18.30418181 -95.98262024 18.30418181 C-95.98262024 17.64418181 -95.98262024 16.98418181 -95.98262024 16.30418181 C-87.91617874 12.85150041 -79.77530994 9.68306081 -71.54902649 6.63621306 C-69.6326856 5.92047128 -67.72089671 5.18268537 -65.86543274 4.32134795 C-45.78881302 -2.76244877 -20.95507086 -0.09320508 0 0 Z " fill="#FCFCFC" transform="translate(189.9826202392578,5.695818185806274)"/>
<path d="M0 0 C2.16807707 2.16807707 2.41382233 3.06606543 3.1875 5.9375 C7.24609053 18.55971654 16.14779909 28.28346326 27.5234375 34.74609375 C30.94237992 36.47713557 34.36565341 37.78855114 38 39 C35.20176425 41.27956963 32.71716977 42.58769728 29.3125 43.75 C17.14837333 48.46158367 9.76154323 57.58886946 4.2578125 69.04296875 C2.70965725 72.68257597 1.74575137 76.12209288 1 80 C-0.58275083 77.02802246 -1.65628157 74.07597667 -2.6875 70.875 C-6.16058779 61.26313343 -11.9722057 54.19951817 -20 48 C-20.9075 47.278125 -21.815 46.55625 -22.75 45.8125 C-27.5749514 43.12166172 -32.72936559 41.60336451 -38 40 C-38 39.34 -38 38.68 -38 38 C-36.4188708 37.49307308 -34.83498617 36.99473557 -33.25 36.5 C-32.36828125 36.2215625 -31.4865625 35.943125 -30.578125 35.65625 C-28 35 -28 35 -24 35 C-24 34.34 -24 33.68 -24 33 C-22.27734375 31.80859375 -22.27734375 31.80859375 -19.9375 30.4375 C-8.89420328 23.17308137 -4.88613649 11.76480137 0 0 Z " fill="#F8F8F8" transform="translate(314,229)"/>
<path d="M0 0 C0.66 0.33 1.32 0.66 2 1 C-2.62 5.62 -7.24 10.24 -12 15 C-12.66 14.67 -13.32 14.34 -14 14 C-9.67106815 8.81580806 -5.23435005 4.27293882 0 0 Z " fill="#383838" transform="translate(122,45)"/>
<path d="M0 0 C0.66 0.33 1.32 0.66 2 1 C-2.29 5.29 -6.58 9.58 -11 14 C-11.66 13.67 -12.32 13.34 -13 13 C-4.738041 3.40546697 -4.738041 3.40546697 0 0 Z " fill="#C9C9C9" transform="translate(39,645)"/>
<path d="M0 0 C0.66 0 1.32 0 2 0 C0.59155282 3.21524305 -1.10344786 5.32183868 -3.625 7.75 C-4.57246094 8.67039062 -4.57246094 8.67039062 -5.5390625 9.609375 C-6.02117187 10.06828125 -6.50328125 10.5271875 -7 11 C-7.66 10.67 -8.32 10.34 -9 10 C-7.8758824 8.70756532 -6.75067408 7.41607925 -5.625 6.125 C-4.99851562 5.40570313 -4.37203125 4.68640625 -3.7265625 3.9453125 C-2.52573166 2.5923402 -1.2791655 1.2791655 0 0 Z " fill="#313131" transform="translate(332,278)"/>
<path d="M0 0 C-1.98 0.99 -3.96 1.98 -6 3 C-6 3.66 -6 4.32 -6 5 C-8.97 4.505 -8.97 4.505 -12 4 C-12 3.34 -12 2.68 -12 2 C-10.37787941 1.47026689 -8.75218416 0.95146893 -7.125 0.4375 C-6.22007812 0.14746094 -5.31515625 -0.14257812 -4.3828125 -0.44140625 C-2 -1 -2 -1 0 0 Z " fill="#A0A0A0" transform="translate(288,265)"/>
</svg>
